<svg width="36" height="36" viewBox="0 0 36 36" fill="none" xmlns="http://www.w3.org/2000/svg">
<path d="M32.1123 29.6319L25.4966 23.0162C27.0893 20.8958 27.9491 18.3149 27.9462 15.6629C27.9462 8.88902 22.4352 3.37793 15.6613 3.37793C8.88734 3.37793 3.37625 8.88902 3.37625 15.6629C3.37625 22.4368 8.88734 27.9479 15.6613 27.9479C18.3132 27.9508 20.8942 27.091 23.0145 25.4982L29.6302 32.1139C29.9651 32.4133 30.4019 32.5731 30.8509 32.5605C31.2999 32.548 31.7271 32.364 32.0447 32.0464C32.3623 31.7288 32.5463 31.3016 32.5589 30.8526C32.5714 30.4036 32.4116 29.9668 32.1123 29.6319ZM6.88625 15.6629C6.88625 13.9274 7.4009 12.2308 8.3651 10.7878C9.32931 9.34476 10.6998 8.22005 12.3032 7.55589C13.9066 6.89173 15.671 6.71795 17.3732 7.05654C19.0754 7.39512 20.6389 8.23086 21.8661 9.45807C23.0933 10.6853 23.9291 12.2488 24.2676 13.951C24.6062 15.6532 24.4325 17.4176 23.7683 19.021C23.1041 20.6244 21.9794 21.9949 20.5364 22.9591C19.0933 23.9233 17.3968 24.4379 15.6613 24.4379C13.3348 24.4351 11.1045 23.5097 9.45947 21.8647C7.81444 20.2197 6.88904 17.9893 6.88625 15.6629Z" fill="#3D3B40"/>
</svg>
